PathFileType	4	(X/Y/Z)	Patient5_TMGait_0pt45_1_left_12.trc.trc
DataRate	CameraRate	NumFrames	NumMarkers	Units	OrigDataRate	OrigDataStartFrame	OrigNumFrames
62.500000000000	62.500000000000	4	32	mm	62.500000000000	106	       141
Frame#	Time	R.ASIS			L.ASIS			Chest			R.Shoulder			Neck			L.Shoulder			L.Elbow			L.Wrist			R.Elbow			R.Wrist			L.Thigh.Superior			L.Thigh.Lateral			L.Thigh.Inferior			L.Patella			L.Shank.Superior			L.Shank.Lateral			L.Shank.Inferior			L.Heel			L.Midfoot.Lateral			L.Midfoot.Superior			L.Toe			R.Thigh.Superior			R.Thigh.Lateral			R.Thigh.Inferior			R.Patella			R.Shank.Superior			R.Shank.Lateral			R.Shank.Inferior			R.Heel			R.Midfoot.Lateral			R.Midfoot.Superior			R.Toe			
		X1	Y1	Z1	X2	Y2	Z2	X3	Y3	Z3	X4	Y4	Z4	X5	Y5	Z5	X6	Y6	Z6	X7	Y7	Z7	X8	Y8	Z8	X9	Y9	Z9	X10	Y10	Z10	X11	Y11	Z11	X12	Y12	Z12	X13	Y13	Z13	X14	Y14	Z14	X15	Y15	Z15	X16	Y16	Z16	X17	Y17	Z17	X18	Y18	Z18	X19	Y19	Z19	X20	Y20	Z20	X21	Y21	Z21	X22	Y22	Z22	X23	Y23	Z23	X24	Y24	Z24	X25	Y25	Z25	X26	Y26	Z26	X27	Y27	Z27	X28	Y28	Z28	X29	Y29	Z29	X30	Y30	Z30	X31	Y31	Z31	X32	Y32	Z32	

106	20.290000000000	1030.236706962322	967.552024240164	595.202155234568	1012.283336049414	951.444682951908	358.507500436827	1097.660447606254	1426.884531795028	503.875455663893	1001.288681800749	1483.280499846474	675.203751715752	970.356157863708	1550.325461318922	493.784782189104	1033.552282948724	1503.937304510729	310.122761795510	941.465053522327	1197.879160362991	165.697333813229	1028.644283687661	920.403442348769	182.090164173703	931.904344963953	1165.932595123014	824.003133947471	1150.646676731672	989.972114874382	750.681943186986	1072.745690416398	753.454210951878	322.607250870293	1019.082892969637	674.656601857980	276.198214384855	1111.583586008609	631.194199679829	327.424635886319	1126.262036591010	484.242508884797	319.588093133017	1021.208258997491	404.415161429323	342.556806745577	926.219616584070	395.207392490567	265.778316356116	916.600799885756	334.019864158792	353.193461595774	666.409232161329	262.204812357971	345.658554604681	707.096080978664	171.705579952916	295.880056935313	818.429018392555	143.130573537222	341.532796633010	855.217959219073	43.644412580077	359.216204311390	1023.928742345208	734.362277422170	613.720141620171	929.864263333398	663.462165242298	665.851003472076	1003.636573571447	606.975875839209	589.000018294516	997.694156407275	512.789533977954	615.624654108447	957.420564656469	420.248230853235	577.259358254902	890.378362103232	350.020778387492	657.481409062606	949.105621615593	282.003926801242	574.782326347783	840.188192714054	53.391976146720	534.448975342240	915.117596970001	24.483859622998	611.143874120928	1021.786700772498	87.908113488530	591.539860566790	1125.757205039649	45.035098890715	596.459696473786	
107	20.306000000000	1028.054359388021	966.692642982900	596.766381386834	1010.157649220890	950.599903719266	360.254283758065	1098.974128754660	1425.083535747355	503.974610820354	1004.248498332091	1481.533566419778	675.993585469045	971.958375867270	1549.096356639390	494.818000952267	1033.659568758884	1502.740649896908	310.740200245010	938.776924739010	1196.327972365814	168.304196148595	1025.889247022497	918.802390364632	183.732618514298	936.021223818470	1165.258896392655	827.312091608979	1152.468082470267	986.078847208179	754.961097834662	1076.253249778872	758.725949846068	325.337203562859	1026.456791432437	678.170914189715	277.849769624283	1120.210556693163	638.240296044879	330.110531708137	1139.705861472457	490.663294678558	322.012699617726	1034.714065421481	409.443453637365	344.257158835523	940.585797711471	400.066172347982	266.308393225558	929.481087306772	339.266292272595	353.848192803641	679.031766205449	267.520542651078	343.598597738780	721.307427700641	177.795588795279	294.016506341308	832.137598281254	149.639085289657	341.710122361941	869.238113285695	47.139361919996	359.105438259382	1020.385748723122	733.609578548009	615.663922549363	925.657327508383	663.378334085931	667.488891701449	999.170162226099	606.286178239298	590.756469969108	992.340624597231	512.088089074218	617.114985778558	951.595420827557	420.151979079828	578.580359002402	884.231029272623	350.093082127155	658.592844999622	942.631250450926	281.939427712751	575.742773433536	832.829888129815	53.399227457321	534.709583804710	907.813978053912	24.420325060530	611.335242136300	1014.469464745414	87.883315656035	591.764181361241	1118.459955744016	45.120972438663	596.572066807630	
108	20.322000000000	1025.948664942591	966.132581555347	598.542186489014	1008.078012298706	950.037369041365	361.915746475600	1100.383440039268	1423.490180606352	503.715459026844	1007.245237980863	1480.209979228259	676.257042762929	973.830404137240	1548.204755618219	495.288963746144	1034.230701265693	1501.697843225536	310.918008834617	936.868355808213	1194.944829960266	170.374941722332	1023.740256559661	917.355093217267	185.466213384913	939.906735984063	1165.028140788543	829.937997027942	1154.073178981437	982.598697373876	758.745388297983	1079.107737106202	764.376235609313	328.385876931125	1032.955170399381	682.291001924804	279.775732439915	1127.555524862882	645.628262336254	333.226122048460	1151.766288323260	497.719290742977	324.679896232374	1047.593034217476	414.543587840703	346.117930967869	954.185466312212	404.188596994505	267.277455333427	942.645971858567	343.299475947846	354.735406734521	692.667443565371	267.209500393056	342.109856801827	738.342939177720	179.673670891480	292.389071935480	849.064954158832	154.428800575408	341.724189145289	888.874130974572	51.099073859404	358.553612007335	1017.373993189356	733.075224909701	617.465509700478	922.077332291699	663.304542262448	668.869644294363	995.544193630691	605.692793705883	592.350886773482	987.879041386846	511.460831203537	618.468735326823	946.653023599887	419.989332517830	579.737229073874	878.763393148466	350.181342740009	659.514553432866	936.693756194144	281.788602969087	576.552058415456	825.485314534899	53.415223106749	534.928724767070	900.536839497568	24.391369412369	611.508970550312	1007.186482751559	87.864839859754	591.987372154936	1111.191494539966	45.166483290849	596.686081221734	
109	20.338000000000	1024.034186298414	965.820043617172	600.328702960534	1006.011335942351	949.751150156528	363.429535000768	1101.885898110194	1422.125284640762	503.150129451840	1010.246022438339	1479.378720829318	676.045519676754	975.951663237408	1547.659446980283	495.235887687267	1035.289138682635	1500.791534737982	310.693982254043	935.788019029634	1193.775598060448	171.841739844896	1022.213237488987	916.098564625662	187.271089376619	943.424779736274	1165.307631208853	831.890476962775	1155.452829590003	979.816541983500	761.898667910142	1081.275178815210	770.164136479161	331.449494313029	1038.477171555309	686.782765167660	281.797510036309	1133.611757675496	653.084310648703	336.481045124815	1162.425715013787	505.203093752211	327.367250446308	1059.931802865950	419.446755662396	347.968401484672	967.130201305595	407.210547091168	268.571819030858	956.317358126680	345.811269828123	355.769725843395	707.869675602723	261.242414667547	341.368133261444	758.291302416913	177.274582518419	291.043616682182	869.282923238575	157.084974559507	341.425999101337	913.941690248058	55.013669965663	357.239825711155	1014.730569085999	732.659551265953	618.895209225042	918.950380832549	663.237371076361	669.916636941654	992.393584543873	605.124672858428	593.593220284295	983.971286037975	510.892923304579	619.522078637629	942.220585219950	419.787759439055	580.619610761270	873.736756715628	350.299644821390	660.208265061702	931.082343470508	281.592427445721	577.149065279613	818.151992858237	53.433676963546	535.102116073282	893.277454293976	24.393596080751	611.662685996558	999.924272955139	87.846539816047	592.192656356901	1103.944639270251	45.178681503390	596.796692896337	
